<svg xmlns="http://www.w3.org/2000/svg" width="72.95" height="72.95" viewBox="0 0 72.95 72.95">
  <g id="Group_154" data-name="Group 154" transform="translate(0 72.95) rotate(-90)">
    <g id="Group_152" data-name="Group 152" transform="translate(0 72.95) rotate(-90)" opacity="0">
      <path id="Path_17" data-name="Path 17" d="M0,0H72.95V72.95H0Z" fill="#4295d0"/>
    </g>
    <path id="Path_18" data-name="Path 18" d="M30.239,43.356A5.286,5.286,0,0,1,26.2,41.411l-12.8-15.5a6.381,6.381,0,0,1-.79-6.717A5.373,5.373,0,0,1,17.443,16H43.036a5.373,5.373,0,0,1,4.833,3.192,6.381,6.381,0,0,1-.79,6.717l-12.8,15.5A5.286,5.286,0,0,1,30.239,43.356Z" transform="translate(6.236 8.317)" fill="#4295d0"/>
    <path id="Path_19" data-name="Path 19" d="M0,0H72.95V72.95H0Z" fill="none"/>
  </g>
</svg>
